<svg width="1536" height="751" fill="none" xmlns="http://www.w3.org/2000/svg"><path fill="#fff" d="M0 0h1536v750H0z"/><path fill-rule="evenodd" clip-rule="evenodd" d="M1104.3 750H749c-96.5-94.9-64.7-298.7 296.8-541.2C1112.5 164 1243 66.7 1243 66.7s94.9 203.2 21.3 441.1c-19.2 62.1-65.9 173.9-160 242.2z" fill="#F0F9EE"/><path fill-rule="evenodd" clip-rule="evenodd" d="M1357.2 750H812.6c-48-213.9 157.6-323.5 236.7-352.8 202.8-75 394 25 394 25s6.2 149.4-57.8 279.5c-8.3 17-17.8 33.1-28.3 48.3z" fill="#1E9700" fill-opacity=".1"/><path d="M540.7 506.1c.4.6.6 1.1.6 1.7 0 .7-.3 1.3-1 1.8-.5.5-1.2.7-2 .7-.5 0-1 0-1.5-.3-.4-.3-.8-.6-1.1-1.1l-6.4-9.7c-.6-1-1.3-1.7-2-2.2-.8-.4-1.7-.6-2.9-.6h-4.7v10.8c0 1-.2 1.7-.8 2.3a3 3 0 01-2.2.8c-1 0-1.7-.3-2.2-.8-.6-.6-.9-1.4-.9-2.3V479c0-1 .3-1.7.8-2.2a3 3 0 012.2-.7h12c3.9 0 6.8.8 8.8 2.6 2 1.6 3 4.1 3 7.3 0 2.7-.8 4.8-2.3 6.5a10.5 10.5 0 01-6.3 3.2 6 6 0 012.5 1.2c.7.6 1.4 1.4 2 2.4l4.4 6.7zm-13-14.4c2.4 0 4.1-.5 5.2-1.3 1-1 1.6-2.3 1.6-4.1 0-1.9-.5-3.2-1.6-4-1-1-2.8-1.3-5.1-1.3h-8.1v10.7h8zm39.8 11.9c.5 0 1 .2 1.3.6.3.4.5 1 .5 1.7 0 1-.6 1.8-1.8 2.5a16.8 16.8 0 01-7.6 2c-3.8 0-6.8-1.1-9-3.3a12 12 0 01-3.3-9c0-2.3.5-4.4 1.4-6.3 1-1.8 2.3-3.3 4-4.3 1.8-1 3.8-1.5 6-1.5 2.1 0 4 .4 5.5 1.3 1.6 1 2.8 2.3 3.7 4a13 13 0 011.3 6c0 1.4-.6 2-1.8 2h-14.2c.2 2.3.8 3.9 1.9 5 1 1 2.6 1.5 4.6 1.5 1 0 1.9-.2 2.7-.4l2.7-1c1-.6 1.6-.8 2-.8zm-8.3-13.4c-1.7 0-3 .5-4 1.5s-1.5 2.5-1.7 4.4h10.9c-.1-2-.6-3.4-1.5-4.4-.9-1-2.1-1.5-3.7-1.5zm1-6.9c-.3.3-.7.4-1 .4-.5 0-.9-.1-1.2-.4-.3-.4-.4-.7-.4-1.1 0-.4.1-.7.4-1.1l4.6-6.2c.8-1 1.6-1.4 2.6-1.4.7 0 1.3.2 1.7.7.6.5.8 1.1.8 1.8 0 .9-.4 1.6-1.3 2.3l-6.2 5zm36.2-7.4c.9 0 1.6.3 2.2.8.6.5.9 1.2.9 2v28.7c0 .9-.3 1.6-.9 2a3 3 0 01-2.1.8 3 3 0 01-2.2-.7c-.5-.5-.8-1.2-.8-2v-1.3a7.5 7.5 0 01-3 3 9 9 0 01-4.6 1.2 9.8 9.8 0 01-9.1-5.9c-.9-1.9-1.3-4-1.3-6.5 0-2.4.4-4.5 1.3-6.3.9-1.9 2.1-3.3 3.7-4.3a10 10 0 015.4-1.4c1.7 0 3.2.3 4.5 1 1.3.7 2.3 1.7 3 3v-11.4c0-.8.3-1.4.8-2a3 3 0 012.2-.7zm-8.9 29.8c2 0 3.4-.6 4.4-2 1-1.3 1.6-3.1 1.6-5.6 0-2.4-.5-4.2-1.6-5.5-1-1.3-2.5-2-4.4-2-1.9 0-3.4.6-4.4 2a8.5 8.5 0 00-1.6 5.4 9 9 0 001.6 5.7c1 1.4 2.5 2 4.4 2zm39-19.7c1 0 1.7.3 2.3.8.5.5.8 1.2.8 2v18.7c0 .8-.3 1.5-.9 2a3 3 0 01-2.1.8c-1 0-1.6-.3-2.1-.7-.5-.5-.8-1.2-.8-2v-1.2a7.8 7.8 0 01-7.2 4c-5.7 0-8.6-3.2-8.6-9.7v-11.8c0-.9.3-1.6.8-2a3 3 0 012.2-.9c.9 0 1.6.3 2.2.8.5.5.8 1.2.8 2v12c0 1.6.3 2.8 1 3.6.7.8 1.7 1.2 3.2 1.2 1.6 0 3-.5 4-1.6s1.5-2.6 1.5-4.4v-10.7c0-.9.2-1.6.8-2a3 3 0 012.2-.9zm14.7 24.3c-.9 0-1.6-.3-2.2-.7-.5-.5-.8-1.3-.8-2.2V489c0-1 .3-1.7.8-2.1.6-.5 1.3-.8 2.2-.8.9 0 1.6.3 2.2.8.5.4.8 1.2.8 2v18.6c0 1-.3 1.7-.8 2.2-.6.4-1.3.7-2.2.7zm0-28.5c-1 0-2-.3-2.6-.9-.6-.6-1-1.4-1-2.3a3 3 0 011-2.3c.6-.6 1.5-1 2.6-1 1 0 1.9.4 2.5 1 .7.5 1 1.3 1 2.3 0 1-.3 1.7-1 2.3-.6.6-1.4.9-2.5.9zm20.1 28.6c-3.5 0-6.3-.7-8.4-2-1-.7-1.6-1.6-1.6-2.7 0-.6.2-1.1.5-1.5.4-.4.8-.6 1.3-.6.6 0 1.3.2 2.3.7a11.7 11.7 0 006 1.5 6 6 0 003.2-.6c.7-.5 1.1-1.1 1.1-2 0-.5-.1-.9-.5-1.2-.2-.3-.8-.6-1.6-.9l-3.5-1a14 14 0 01-6.2-2.4 5.5 5.5 0 01-1.8-4.4c0-1.4.4-2.6 1.2-3.7.9-1.2 2-2 3.4-2.7 1.5-.6 3.2-1 5-1a14.3 14.3 0 017.3 2c1 .7 1.5 1.5 1.5 2.6 0 .6-.2 1.1-.5 1.6-.4.4-.8.6-1.3.6a3 3 0 01-1-.2l-1.3-.6c-1-.5-1.7-.9-2.4-1.1a7 7 0 00-2.5-.4 5 5 0 00-2.8.7c-.7.5-1 1.2-1 2a2 2 0 001 1.8c.7.4 2 .9 4 1.3 2.2.4 4 1 5.1 1.5 1.2.6 2.1 1.3 2.6 2.2.6.8.8 2 .8 3.3 0 2.2-.9 3.9-2.7 5.2a12 12 0 01-7.2 2zm35.8-6.8c.5 0 1 .2 1.3.6.3.4.5 1 .5 1.7 0 1-.6 1.8-1.8 2.5a16.8 16.8 0 01-7.6 2c-3.8 0-6.8-1.1-9-3.3a12 12 0 01-3.3-9c0-2.3.5-4.4 1.4-6.3 1-1.8 2.4-3.3 4-4.3 1.8-1 3.8-1.5 6-1.5 2.1 0 4 .4 5.6 1.3 1.5 1 2.7 2.3 3.6 4a13 13 0 011.3 6c0 1.4-.6 2-1.8 2H683c.2 2.3.8 3.9 1.9 5 1 1 2.6 1.5 4.6 1.5 1 0 2-.2 2.7-.4l2.7-1c1-.6 1.6-.8 2-.8zm-8.3-13.4c-1.7 0-3 .5-4 1.5s-1.5 2.5-1.7 4.4H694c-.1-2-.6-3.4-1.5-4.4-.9-1-2.1-1.5-3.7-1.5zm34.6 15.3c1.8 0 2.7.7 2.7 2.2 0 .7-.2 1.3-.7 1.7-.4.4-1.1.6-2 .6h-16c-.8 0-1.5-.3-2-.8s-.8-1-.8-1.8c0-.7.3-1.4.9-2.1l12.3-14.3h-10.7c-.9 0-1.5-.2-2-.5-.4-.4-.7-1-.7-1.7 0-.8.3-1.3.7-1.7.5-.4 1.1-.6 2-.6h15.5c.9 0 1.5.3 2 .8s.8 1 .8 1.8-.3 1.5-.8 2.1l-12.4 14.3h11.2zm27.8 4.8c-.9 0-1.6-.3-2.1-.7-.6-.5-.9-1.3-.9-2.2v-28.6c0-1 .3-1.7.9-2.2.5-.4 1.2-.7 2.1-.7.9 0 1.6.3 2.2.7.5.5.8 1.2.8 2.2v28.6c0 1-.3 1.7-.8 2.2-.6.4-1.3.7-2.2.7zm14.4-20c-1.2 0-1.9-.6-2-1.9l-1.2-8.4-.1-1c0-1 .3-1.7.9-2.3.6-.5 1.4-.8 2.3-.8 1 0 1.8.3 2.4.8.5.6.8 1.3.8 2.3v1l-1.2 8.4c-.2 1.3-.8 2-2 2zm14.2 20c-.8 0-1.6-.3-2.1-.7-.6-.5-.9-1.3-.9-2.2V489c0-1 .3-1.7.9-2.1.5-.5 1.3-.8 2.1-.8.9 0 1.6.3 2.2.8.6.4.8 1.2.8 2v18.6c0 1-.2 1.7-.8 2.2-.6.4-1.3.7-2.2.7zm0-28.5c-1 0-2-.3-2.6-.9-.6-.6-1-1.4-1-2.3a3 3 0 011-2.3c.7-.6 1.5-1 2.6-1 1 0 2 .4 2.6 1 .6.5 1 1.3 1 2.3 0 1-.3 1.7-1 2.3-.6.6-1.5.9-2.6.9zm39.5 4.2c2.6 0 4.5.7 5.9 2.3 1.4 1.5 2 4 2 7.3v11.8c0 1-.2 1.7-.8 2.2-.6.4-1.3.7-2.2.7-.8 0-1.6-.3-2.1-.7-.6-.5-.9-1.3-.9-2.2v-11.8c0-1.8-.3-3-1-3.7-.5-.8-1.5-1.2-2.7-1.2-1.6 0-2.9.5-3.8 1.6-1 1-1.4 2.5-1.4 4.4v10.7c0 1-.3 1.7-.8 2.2a3 3 0 01-2.2.7c-.8 0-1.5-.3-2.1-.7-.6-.5-.9-1.3-.9-2.2v-11.8c0-1.8-.3-3-1-3.7-.6-.8-1.5-1.2-2.8-1.2-1.5 0-2.8.5-3.7 1.6-1 1-1.4 2.5-1.4 4.4v10.7c0 1-.3 1.7-.8 2.2-.6.4-1.3.7-2.2.7-.9 0-1.6-.3-2.1-.7-.6-.5-.9-1.3-.9-2.2v-18.6c0-.9.3-1.6.9-2 .6-.5 1.3-.8 2.2-.8.8 0 1.5.3 2 .8.5.4.8 1 .8 2v1a7.6 7.6 0 013-2.8c1.2-.7 2.6-1 4.2-1 3.5 0 5.9 1.4 7 4.4a8 8 0 013.2-3.2 9 9 0 014.6-1.2zm30 0a9.6 9.6 0 019 5.9c.9 1.8 1.3 4 1.3 6.4 0 2.4-.4 4.5-1.3 6.4-.9 1.8-2 3.2-3.6 4.2a10 10 0 01-5.5 1.5c-1.6 0-3.1-.4-4.4-1a7.4 7.4 0 01-3-3v9.8c0 .8-.3 1.5-.9 2-.5.4-1.2.7-2.1.7-1 0-1.7-.3-2.2-.8-.6-.5-.9-1.2-.9-2v-27.2c0-.9.3-1.6.8-2a3 3 0 012.2-.9 3 3 0 012.1.8c.6.5.8 1.2.8 2v1.3a7.3 7.3 0 013-3 9.3 9.3 0 014.6-1.1zm-1.7 19.7c2 0 3.4-.6 4.5-1.9 1-1.3 1.5-3.1 1.5-5.5a9 9 0 00-1.5-5.7c-1-1.3-2.6-2-4.5-2s-3.4.7-4.4 2a9 9 0 00-1.6 5.6c0 2.4.6 4.2 1.6 5.6 1 1.3 2.5 2 4.4 2zm29.5-19.7c3.3 0 5.7.8 7.3 2.4 1.6 1.6 2.4 4 2.4 7.3v11.8c0 .8-.3 1.5-.8 2a3 3 0 01-2 .7c-1 0-1.6-.2-2.1-.7-.6-.5-.8-1.2-.8-2v-1.1a6.2 6.2 0 01-2.6 3 9.4 9.4 0 01-8.3.1 7.6 7.6 0 01-3-2.7 6.7 6.7 0 01-1.1-3.8c0-1.7.4-3 1.3-4a8 8 0 014.3-2.2c2-.4 4.7-.7 8.2-.7h1.2v-1c0-1.6-.4-2.8-1-3.5-.7-.7-1.8-1-3.3-1-1 0-1.9 0-2.8.3a33 33 0 00-5.3 1.8c-.5 0-1-.2-1.4-.6-.3-.4-.5-1-.5-1.6 0-.6.1-1 .4-1.4a4 4 0 011.4-1.2 21 21 0 018.6-2zm-1.4 20a5 5 0 003.8-1.5c1-1.1 1.6-2.5 1.6-4.2v-1h-.9c-2.1 0-3.8 0-5 .3-1.2.2-2 .5-2.5 1s-.8 1.1-.8 2c0 1 .4 1.8 1 2.5a4 4 0 002.8 1zm30 4.4c-2.3 0-4.4-.5-6.2-1.5-1.7-1-3.1-2.4-4-4.2-1-1.9-1.5-4-1.5-6.4 0-2.4.5-4.6 1.5-6.4 1-2 2.4-3.4 4.3-4.4a13.7 13.7 0 0113.4.4c1 .7 1.5 1.5 1.5 2.6 0 .7-.2 1.2-.5 1.7-.4.4-.8.6-1.3.6-.4 0-.8 0-1.1-.2l-1.2-.6-2-1a6 6 0 00-2.2-.3c-2 0-3.5.6-4.6 2-1 1.2-1.6 3-1.6 5.5 0 2.4.5 4.2 1.6 5.6 1 1.2 2.6 1.9 4.6 1.9a6 6 0 002-.4 20.4 20.4 0 003.5-1.6l1-.2c.5 0 1 .2 1.3.6.4.5.5 1 .5 1.7a2.7 2.7 0 01-1.5 2.5 13.2 13.2 0 01-7.5 2zm27.8-4.6c1.6.1 2.4.8 2.4 2.2a2 2 0 01-1 1.8c-.6.3-1.5.5-2.6.4H931c-5.4-.4-8.1-3.3-8.1-8.7V491h-2.4c-.9 0-1.5-.2-2-.5-.5-.4-.7-1-.7-1.7 0-.8.2-1.3.7-1.7.5-.4 1.1-.6 2-.6h2.4v-4.4c0-.9.3-1.5.8-2a3 3 0 012.2-.8 3 3 0 012.2.7c.5.6.8 1.2.8 2.1v4.4h4c1 0 1.6.2 2 .6.5.4.8 1 .8 1.7s-.3 1.3-.8 1.7c-.4.3-1 .5-2 .5h-4v11c0 2.3 1 3.6 3.3 3.7l1.3.1zm41.9-2.2c.5 0 1 .2 1.3.6.3.4.5 1 .5 1.7 0 1-.6 1.8-1.8 2.5a16.8 16.8 0 01-7.6 2c-3.8 0-6.8-1.1-9-3.3a12 12 0 01-3.3-9c0-2.3.5-4.4 1.5-6.3 1-1.8 2.3-3.3 4-4.3 1.8-1 3.7-1.5 6-1.5 2 0 3.9.4 5.5 1.3 1.5 1 2.8 2.3 3.6 4a13 13 0 011.3 6c0 1.4-.6 2-1.8 2h-14.2c.2 2.3.8 3.9 1.9 5 1 1 2.6 1.5 4.6 1.5 1 0 2-.2 2.7-.4l2.7-1c1-.6 1.6-.8 2.1-.8zm-8.3-13.4c-1.6 0-3 .5-4 1.5-.9 1-1.5 2.5-1.7 4.4h10.9c0-2-.6-3.4-1.5-4.4-.9-1-2.1-1.5-3.7-1.5zm31.3-4.2c2.8 0 4.9.8 6.2 2.4 1.4 1.6 2.1 4 2.1 7.2v11.8c0 .9-.3 1.6-.8 2.1a3 3 0 01-2.2.8 3 3 0 01-2.2-.8c-.5-.5-.8-1.2-.8-2v-11.6c0-1.8-.4-3.1-1-4-.7-.8-1.8-1.2-3.3-1.2-1.7 0-3 .5-4.1 1.6-1 1.1-1.6 2.6-1.6 4.4v10.7c0 .9-.3 1.6-.8 2.1a3 3 0 01-2.2.8 3 3 0 01-2.2-.8c-.5-.5-.8-1.2-.8-2v-18.7c0-.8.3-1.5.8-2a3 3 0 012.2-.8c.9 0 1.5.3 2 .8.6.5.9 1.1.9 2v1.2a8.1 8.1 0 013.2-3c1.3-.7 2.9-1 4.6-1zm33.2 1.8c.2-.6.6-1 1-1.3.4-.3.9-.5 1.4-.5.8 0 1.4.3 2 .8.6.5.9 1.1.9 1.8l-.3 1.2-8.9 18.6c-.3.6-.7 1-1.2 1.4-.5.3-1.1.4-1.8.4-.6 0-1.2-.1-1.7-.4a3 3 0 01-1.3-1.4l-8.9-18.6c-.2-.3-.2-.7-.2-1.1 0-.7.3-1.4.9-1.9.6-.5 1.3-.8 2.1-.8 1.2 0 2 .6 2.6 1.7l6.7 14.9 6.7-14.8zm15 22.5c-.8 0-1.5-.3-2.1-.7-.6-.5-.8-1.3-.8-2.2V489c0-1 .2-1.7.8-2.1.5-.5 1.3-.8 2.1-.8.9 0 1.6.3 2.2.8.6.4.9 1.2.9 2v18.6c0 1-.3 1.7-.9 2.2-.6.4-1.3.7-2.2.7zm0-28.5c-1 0-2-.3-2.6-.9-.6-.6-1-1.4-1-2.3a3 3 0 011-2.3c.7-.6 1.5-1 2.6-1 1 0 2 .4 2.6 1 .6.5 1 1.3 1 2.3 0 1-.3 1.7-1 2.3-.6.6-1.5.9-2.6.9zm24.8 4.2c.8 0 1.4.2 2 .6.4.4.6 1 .6 1.8 0 1-.2 1.6-.6 2-.4.4-1.2.7-2.2.8l-1.5.1c-1.9.2-3.3.9-4.2 2-.8 1-1.3 2.4-1.3 4v10.1c0 1-.2 1.7-.8 2.2-.6.4-1.3.7-2.2.7-.8 0-1.6-.3-2.1-.7-.6-.5-.8-1.3-.8-2.2v-18.6c0-.9.2-1.6.8-2 .5-.5 1.2-.8 2-.8 1 0 1.6.3 2 .8.6.4.9 1 .9 2v1.9a7.1 7.1 0 012.7-3.3 8.4 8.4 0 014-1.3h.6zm17.9 24.4a13 13 0 01-6.4-1.5c-1.8-1-3.2-2.4-4.2-4.3-1-1.8-1.4-4-1.4-6.5 0-2.4.5-4.6 1.5-6.4 1-1.8 2.3-3.3 4.1-4.3 1.8-1 4-1.4 6.4-1.4 2.4 0 4.5.4 6.3 1.4a10 10 0 014.1 4.3c1 1.8 1.5 4 1.5 6.4 0 2.5-.5 4.7-1.5 6.5a10 10 0 01-4.2 4.3c-1.8 1-3.8 1.5-6.2 1.5zm0-4.7c1.9 0 3.4-.6 4.4-1.9 1-1.3 1.5-3.2 1.5-5.7 0-2.4-.5-4.3-1.5-5.6-1-1.3-2.5-2-4.4-2-2 0-3.5.7-4.5 2a8.9 8.9 0 00-1.5 5.6c0 2.5.5 4.4 1.5 5.7 1 1.3 2.5 2 4.4 2zm32.9-19.7c2.8 0 5 .8 6.3 2.4 1.4 1.6 2 4 2 7.2v11.8c0 .9-.2 1.6-.8 2.1a3 3 0 01-2.1.8c-1 0-1.7-.3-2.2-.8-.6-.5-.9-1.2-.9-2v-11.6c0-1.8-.3-3.1-1-4-.7-.8-1.8-1.2-3.2-1.2-1.8 0-3.1.5-4.2 1.6-1 1.1-1.5 2.6-1.5 4.4v10.7c0 .9-.3 1.6-.8 2.1-.6.5-1.3.8-2.3.8-.9 0-1.6-.3-2.2-.8-.5-.5-.7-1.2-.7-2v-18.7c0-.8.2-1.5.8-2a3 3 0 012.2-.8c.8 0 1.5.3 2 .8.6.5.8 1.1.8 2v1.2a8 8 0 013.2-3c1.4-.7 2.9-1 4.6-1zm30.5 0c2.8 0 4.9.8 6.3 2.4 1.3 1.6 2 4 2 7.2v11.8c0 .9-.3 1.6-.8 2.1a3 3 0 01-2.2.8c-.9 0-1.6-.3-2.2-.8-.5-.5-.8-1.2-.8-2v-11.6c0-1.8-.3-3.1-1-4-.7-.8-1.8-1.2-3.3-1.2-1.7 0-3 .5-4.1 1.6a6 6 0 00-1.6 4.4v10.7c0 .9-.2 1.6-.8 2.1-.5.5-1.3.8-2.2.8a3 3 0 01-2.2-.8c-.5-.5-.8-1.2-.8-2v-18.7c0-.8.3-1.5.9-2a3 3 0 012.2-.8c.8 0 1.5.3 2 .8s.8 1.1.8 2v1.2a8.1 8.1 0 013.2-3c1.4-.7 2.9-1 4.6-1zm35.4 17.6c.5 0 1 .2 1.3.6.3.4.5 1 .5 1.7 0 1-.6 1.8-1.8 2.5a16.7 16.7 0 01-7.6 2c-3.8 0-6.8-1.1-9-3.3a12 12 0 01-3.3-9c0-2.3.5-4.4 1.5-6.3 1-1.8 2.3-3.3 4-4.3 1.8-1 3.7-1.5 6-1.5 2 0 3.9.4 5.5 1.3 1.5 1 2.8 2.3 3.6 4 .9 1.7 1.3 3.7 1.3 6 0 1.4-.6 2-1.8 2H1174c.2 2.3.8 3.9 1.9 5 1 1 2.6 1.5 4.6 1.5 1 0 2-.2 2.7-.4l2.7-1c1-.6 1.7-.8 2.1-.8zm-8.3-13.4c-1.6 0-3 .5-4 1.5-.9 1-1.5 2.5-1.7 4.4h10.9c0-2-.6-3.4-1.5-4.4-.9-1-2.1-1.5-3.7-1.5zm45.5-4.2c2.6 0 4.5.7 5.9 2.3 1.3 1.5 2 4 2 7.3v11.8c0 1-.3 1.7-.8 2.2-.6.4-1.3.7-2.2.7-.9 0-1.6-.3-2.2-.7-.5-.5-.8-1.3-.8-2.2v-11.8c0-1.8-.3-3-1-3.7-.5-.8-1.5-1.2-2.8-1.2-1.5 0-2.8.5-3.7 1.6-1 1-1.4 2.5-1.4 4.4v10.7c0 1-.3 1.7-.9 2.2-.5.4-1.2.7-2 .7-1 0-1.7-.3-2.2-.7-.6-.5-.9-1.3-.9-2.2v-11.8c0-1.8-.3-3-1-3.7-.6-.8-1.5-1.2-2.8-1.2-1.6 0-2.8.5-3.7 1.6-1 1-1.4 2.5-1.4 4.4v10.7c0 1-.3 1.7-.8 2.2-.6.4-1.3.7-2.2.7-.9 0-1.6-.3-2.2-.7-.5-.5-.8-1.3-.8-2.2v-18.6c0-.9.3-1.6.9-2 .6-.5 1.3-.8 2.1-.8.9 0 1.5.3 2 .8.6.4.9 1 .9 2v1a7.6 7.6 0 012.9-2.8 9 9 0 014.3-1c3.5 0 5.8 1.4 7 4.4a8 8 0 013.2-3.2c1.3-.8 2.9-1.2 4.6-1.2zm35 17.6c.5 0 1 .2 1.3.6.4.4.5 1 .5 1.7 0 1-.6 1.8-1.8 2.5a16.8 16.8 0 01-7.6 2c-3.8 0-6.8-1.1-9-3.3a12 12 0 01-3.3-9c0-2.3.5-4.4 1.5-6.3 1-1.8 2.3-3.3 4-4.3 1.8-1 3.8-1.5 6-1.5 2 0 4 .4 5.5 1.3 1.5 1 2.8 2.3 3.6 4a13 13 0 011.3 6c0 1.4-.6 2-1.8 2h-14.2c.2 2.3.9 3.9 2 5 1 1 2.5 1.5 4.5 1.5 1 0 2-.2 2.7-.4l2.7-1c1-.6 1.6-.8 2.1-.8zm-8.3-13.4c-1.6 0-3 .5-4 1.5-.9 1-1.5 2.5-1.7 4.4h10.9c0-2-.6-3.4-1.5-4.4-.9-1-2.1-1.5-3.7-1.5zm31.3-4.2c2.8 0 4.9.8 6.3 2.4 1.3 1.6 2 4 2 7.2v11.8c0 .9-.3 1.6-.8 2.1a3 3 0 01-2.2.8 3 3 0 01-2.2-.8c-.5-.5-.8-1.2-.8-2v-11.6c0-1.8-.3-3.1-1-4-.7-.8-1.8-1.2-3.3-1.2-1.7 0-3 .5-4.1 1.6-1 1.1-1.6 2.6-1.6 4.4v10.7c0 .9-.3 1.6-.8 2.1a3 3 0 01-2.2.8c-1 0-1.7-.3-2.2-.8-.5-.5-.8-1.2-.8-2v-18.7c0-.8.3-1.5.8-2 .6-.5 1.3-.8 2.3-.8.8 0 1.5.3 2 .8s.8 1.1.8 2v1.2a8 8 0 013.2-3c1.3-.7 2.9-1 4.6-1zm29 19.8c1.6.1 2.4.8 2.4 2.2a2 2 0 01-1 1.8c-.6.3-1.5.5-2.6.4h-1.3c-5.4-.4-8-3.3-8-8.7V491h-2.5c-.8 0-1.5-.2-2-.5-.4-.4-.6-1-.6-1.7 0-.8.2-1.3.6-1.7.5-.4 1.2-.6 2-.6h2.4v-4.4c0-.9.3-1.5.8-2 .6-.6 1.3-.8 2.3-.8a3 3 0 012.1.7c.6.6.8 1.2.8 2.1v4.4h4.1c.9 0 1.5.2 2 .6.5.4.7 1 .7 1.7s-.2 1.3-.7 1.7c-.5.3-1.1.5-2 .5h-4v11c0 2.3 1 3.6 3.2 3.7l1.3.1zm18.1-19.8c3.3 0 5.7.8 7.3 2.4 1.5 1.6 2.3 4 2.3 7.3v11.8c0 .8-.2 1.5-.7 2a3 3 0 01-2.1.7 3 3 0 01-2.1-.7c-.5-.5-.8-1.2-.8-2v-1.1a6.2 6.2 0 01-2.6 3 9.4 9.4 0 01-8.3.1 7.5 7.5 0 01-3-2.7 6.6 6.6 0 01-1-3.8c0-1.7.3-3 1.2-4a8 8 0 014.3-2.2c2-.4 4.8-.7 8.2-.7h1.2v-1c0-1.6-.3-2.8-1-3.5-.6-.7-1.7-1-3.2-1-1 0-2 0-2.9.3a33.7 33.7 0 00-5.2 1.8c-.6 0-1-.2-1.4-.6-.4-.4-.6-1-.6-1.6 0-.6.2-1 .4-1.4a4 4 0 011.4-1.2 21 21 0 018.6-2zm-1.5 20a5 5 0 003.9-1.5c1-1.1 1.5-2.5 1.5-4.2v-1h-.8a33 33 0 00-5 .3c-1.2.2-2 .5-2.6 1-.5.5-.7 1.1-.7 2 0 1 .3 1.8 1 2.5a4 4 0 002.7 1zm22.6 4.3c-.8 0-1.6-.3-2.1-.7-.6-.5-.9-1.3-.9-2.2v-28.6c0-1 .3-1.7.9-2.2.5-.4 1.3-.7 2.1-.7.9 0 1.6.3 2.2.7.6.5.8 1.2.8 2.2v28.6c0 1-.2 1.7-.8 2.2-.6.4-1.3.7-2.2.7zm-818.8 30.6c.9 0 1.6.3 2.2.8.6.5.9 1.2.9 2v28.7c0 .9-.3 1.6-.8 2a3 3 0 01-2.2.8 3 3 0 01-2.2-.7c-.5-.5-.8-1.2-.8-2v-1.3a7.5 7.5 0 01-3 3 9 9 0 01-4.6 1.2 9.8 9.8 0 01-9-5.9c-1-1.9-1.4-4-1.4-6.5 0-2.4.5-4.5 1.3-6.3 1-1.9 2.1-3.3 3.7-4.3a10 10 0 015.4-1.4c1.7 0 3.2.3 4.6 1 1.3.7 2.3 1.7 3 3v-11.4c0-.8.2-1.4.7-2a3 3 0 012.2-.7zm-8.9 29.8c2 0 3.4-.6 4.4-2 1.1-1.3 1.6-3.1 1.6-5.6 0-2.4-.5-4.2-1.6-5.5-1-1.3-2.4-2-4.3-2-2 0-3.4.6-4.5 2a8.5 8.5 0 00-1.6 5.4 9 9 0 001.6 5.7c1 1.4 2.5 2 4.4 2zm39.1-2.1c.6 0 1 .2 1.3.6.4.4.5 1 .5 1.7 0 1-.5 1.8-1.7 2.5a16.8 16.8 0 01-7.7 2c-3.7 0-6.7-1.1-9-3.3a12 12 0 01-3.2-9c0-2.3.4-4.4 1.4-6.3 1-1.8 2.3-3.3 4-4.3 1.8-1 3.8-1.5 6-1.5 2 0 4 .4 5.5 1.3 1.6 1 2.8 2.3 3.6 4a13 13 0 011.3 6c0 1.4-.6 2-1.8 2H549c.1 2.3.8 3.9 1.8 5 1 1 2.6 1.5 4.6 1.5 1 0 2-.2 2.7-.4l2.7-1c1-.6 1.7-.8 2.1-.8zm-8.3-13.4c-1.6 0-3 .5-4 1.5-.9 1-1.5 2.5-1.6 4.4h10.8c0-2-.5-3.4-1.4-4.4-1-1-2.2-1.5-3.8-1.5zm49.4-2.4c.3-.6.6-1 1-1.3.5-.3 1-.5 1.5-.5.7 0 1.4.3 2 .8.6.5.9 1.1.9 1.8l-.3 1.2-8.9 18.6c-.3.6-.7 1-1.2 1.4-.6.3-1.1.4-1.8.4-.6 0-1.2-.1-1.7-.4-.6-.4-1-.8-1.3-1.4l-9-18.6-.2-1.1c0-.7.3-1.4 1-1.9.6-.5 1.3-.8 2.1-.8 1.2 0 2 .6 2.6 1.7l6.7 14.9 6.6-14.8zm21.7 22.6a13 13 0 01-6.4-1.5c-1.8-1-3.1-2.4-4.1-4.3-1-1.8-1.5-4-1.5-6.5 0-2.4.5-4.6 1.5-6.4 1-1.8 2.3-3.3 4.1-4.3 1.9-1 4-1.4 6.4-1.4 2.4 0 4.5.4 6.3 1.4a10 10 0 014.1 4.3c1 1.8 1.5 4 1.5 6.4 0 2.5-.5 4.7-1.5 6.5a10 10 0 01-4.1 4.3c-1.8 1-4 1.5-6.3 1.5zm0-4.7c1.9 0 3.4-.6 4.4-1.9 1-1.3 1.5-3.2 1.5-5.7 0-2.4-.5-4.3-1.5-5.6-1-1.3-2.5-2-4.4-2-2 0-3.4.7-4.5 2-1 1.3-1.5 3.2-1.5 5.6 0 2.5.5 4.4 1.5 5.7 1 1.3 2.5 2 4.4 2zm31.3.1c1.6.1 2.4.8 2.4 2.2a2 2 0 01-1 1.8c-.5.3-1.4.5-2.6.4h-1.3c-5.3-.4-8-3.3-8-8.7V556H644c-.9 0-1.6-.2-2-.5-.5-.4-.7-1-.7-1.7 0-.8.2-1.3.7-1.7.4-.4 1.1-.6 2-.6h2.4v-4.4c0-.9.2-1.5.8-2a3 3 0 012.2-.8 3 3 0 012.2.7c.5.6.8 1.2.8 2.1v4.4h4c1 0 1.6.2 2 .6.5.4.7 1 .7 1.7s-.2 1.3-.7 1.7c-.4.3-1 .5-2 .5h-4v11c0 2.3 1 3.6 3.2 3.7l1.3.1zm21-19.8c.9 0 1.5.2 2 .6.5.4.7 1 .7 1.8 0 1-.2 1.6-.6 2-.4.4-1.1.7-2.2.8l-1.5.1c-1.9.2-3.3.9-4.1 2-1 1-1.3 2.4-1.3 4v10.1c0 1-.3 1.7-1 2.2-.5.4-1.2.7-2 .7-1 0-1.7-.3-2.2-.7-.6-.5-.8-1.3-.8-2.2v-18.6c0-.9.2-1.6.8-2 .5-.5 1.3-.8 2-.8 1 0 1.6.3 2.1.8.5.4.8 1 .8 2v1.9a7.2 7.2 0 012.7-3.3 8.5 8.5 0 014-1.3h.7zm25.8 17.6c.6 0 1 .2 1.3.6.4.4.6 1 .6 1.7 0 1-.6 1.8-1.8 2.5a16.8 16.8 0 01-7.6 2c-3.8 0-6.8-1.1-9-3.3a12 12 0 01-3.3-9c0-2.3.4-4.4 1.4-6.3 1-1.8 2.3-3.3 4-4.3 1.8-1 3.8-1.5 6-1.5 2.1 0 4 .4 5.5 1.3 1.6 1 2.8 2.3 3.7 4a13 13 0 011.3 6c0 1.4-.7 2-1.9 2H690c.2 2.3.8 3.9 1.8 5 1.1 1 2.6 1.5 4.7 1.5 1 0 1.9-.2 2.6-.4l2.7-1c1-.6 1.7-.8 2.1-.8zm-8.3-13.4c-1.6 0-3 .5-3.9 1.5-1 1-1.5 2.5-1.7 4.4h10.8c0-2-.5-3.4-1.4-4.4-1-1-2.2-1.5-3.8-1.5zm43.3-4.2c3.2 0 5.7.8 7.2 2.4 1.6 1.6 2.4 4 2.4 7.3v11.8c0 .8-.2 1.5-.7 2a3 3 0 01-2.2.7c-.8 0-1.5-.2-2-.7-.5-.5-.8-1.2-.8-2v-1.1a6.2 6.2 0 01-2.6 3 9.4 9.4 0 01-8.3.1 7.6 7.6 0 01-3-2.7 6.7 6.7 0 01-1.1-3.8c0-1.7.4-3 1.3-4a8 8 0 014.3-2.2c2-.4 4.7-.7 8.2-.7h1.2v-1c0-1.6-.3-2.8-1-3.5-.7-.7-1.8-1-3.3-1-.9 0-1.8 0-2.8.3a33 33 0 00-5.2 1.8c-.6 0-1-.2-1.5-.6-.3-.4-.5-1-.5-1.6 0-.6.1-1 .4-1.4a4 4 0 011.4-1.2 21 21 0 018.6-2zm-1.5 20a5 5 0 003.9-1.5c1-1.1 1.5-2.5 1.5-4.2v-1h-.9c-2.1 0-3.8 0-5 .3-1.1.2-2 .5-2.5 1s-.8 1.1-.8 2c0 1 .4 1.8 1.1 2.5a4 4 0 002.7 1zm22.6 4.3c-.9 0-1.6-.3-2.2-.7-.5-.5-.8-1.3-.8-2.2v-28.6c0-1 .3-1.7.8-2.2.6-.4 1.3-.7 2.2-.7.9 0 1.6.3 2.2.7.5.5.8 1.2.8 2.2v28.6c0 1-.3 1.7-.8 2.2-.6.4-1.3.7-2.2.7zm14.6 0c-.9 0-1.6-.3-2.2-.7-.5-.5-.8-1.3-.8-2.2V554c0-1 .3-1.7.8-2.1.6-.5 1.3-.8 2.2-.8.8 0 1.6.3 2.1.8.6.4.9 1.2.9 2v18.6c0 1-.3 1.7-.9 2.2-.5.4-1.3.7-2.1.7zm0-28.5c-1.1 0-2-.3-2.6-.9-.7-.6-1-1.4-1-2.3a3 3 0 011-2.3c.6-.6 1.5-1 2.6-1 1 0 1.9.4 2.5 1 .7.5 1 1.3 1 2.3 0 1-.3 1.7-1 2.3-.6.6-1.4.9-2.5.9zM814 551c2.5 0 4.5.7 5.8 2.3 1.4 1.5 2.1 4 2.1 7.3v11.8c0 1-.3 1.7-.9 2.2-.5.4-1.2.7-2.1.7-.9 0-1.6-.3-2.2-.7-.5-.5-.8-1.3-.8-2.2v-11.8c0-1.8-.3-3-1-3.7-.6-.8-1.5-1.2-2.8-1.2-1.6 0-2.8.5-3.7 1.6-1 1-1.4 2.5-1.4 4.4v10.7c0 1-.3 1.7-.9 2.2a3 3 0 01-2.1.7c-.9 0-1.6-.3-2.2-.7-.5-.5-.8-1.3-.8-2.2v-11.8c0-1.8-.3-3-1-3.7-.6-.8-1.5-1.2-2.8-1.2-1.6 0-2.8.5-3.8 1.6-.9 1-1.3 2.5-1.3 4.4v10.7c0 1-.3 1.7-.9 2.2-.5.4-1.3.7-2.1.7-.9 0-1.6-.3-2.2-.7-.5-.5-.8-1.3-.8-2.2v-18.6c0-.9.3-1.6.9-2 .5-.5 1.3-.8 2.1-.8s1.5.3 2 .8c.6.4.8 1 .8 2v1a7.6 7.6 0 013-2.8c1.2-.7 2.6-1 4.2-1 3.6 0 6 1.4 7.1 4.4a8 8 0 013.1-3.2 9 9 0 014.7-1.2zm35 17.6c.5 0 1 .2 1.3.6.3.4.5 1 .5 1.7 0 1-.6 1.8-1.8 2.5a16.8 16.8 0 01-7.6 2c-3.8 0-6.8-1.1-9-3.3a12 12 0 01-3.3-9c0-2.3.5-4.4 1.4-6.3 1-1.8 2.3-3.3 4-4.3 1.8-1 3.8-1.5 6-1.5 2.1 0 4 .4 5.5 1.3 1.6 1 2.8 2.3 3.7 4a13 13 0 011.3 6c0 1.4-.6 2-1.8 2H835c.2 2.3.8 3.9 1.9 5 1 1 2.6 1.5 4.6 1.5 1 0 2-.2 2.7-.4l2.7-1c1-.6 1.6-.8 2-.8zm-8.3-13.4c-1.7 0-3 .5-4 1.5s-1.5 2.5-1.7 4.4H846c-.1-2-.6-3.4-1.5-4.4-.9-1-2.1-1.5-3.7-1.5zm31.2-4.2c2.8 0 5 .8 6.3 2.4 1.4 1.6 2 4 2 7.2v11.8c0 .9-.2 1.6-.7 2.1a3 3 0 01-2.2.8 3 3 0 01-2.2-.8c-.5-.5-.8-1.2-.8-2v-11.6c0-1.8-.4-3.1-1-4-.7-.8-1.8-1.2-3.3-1.2-1.7 0-3.1.5-4.2 1.6-1 1.1-1.5 2.6-1.5 4.4v10.7c0 .9-.3 1.6-.8 2.1a3 3 0 01-2.2.8 3 3 0 01-2.2-.8c-.5-.5-.8-1.2-.8-2v-18.7c0-.8.3-1.5.8-2a3 3 0 012.2-.8c.9 0 1.5.3 2 .8.6.5.9 1.1.9 2v1.2a8.1 8.1 0 013.2-3c1.3-.7 2.8-1 4.5-1zm29 19.8c1.7.1 2.5.8 2.5 2.2a2 2 0 01-1 1.8c-.6.3-1.5.5-2.6.4h-1.3c-5.4-.4-8-3.3-8-8.7V556H888c-.9 0-1.5-.2-2-.5-.5-.4-.7-1-.7-1.7 0-.8.2-1.3.7-1.7.5-.4 1.1-.6 2-.6h2.4v-4.4c0-.9.3-1.5.8-2a3 3 0 012.2-.8 3 3 0 012.2.7c.5.6.8 1.2.8 2.1v4.4h4c1 0 1.6.2 2 .6.5.4.8 1 .8 1.7s-.3 1.3-.7 1.7c-.5.3-1.1.5-2 .5h-4v11c0 2.3 1 3.6 3.2 3.7l1.3.1zm18.2-19.8c3.2 0 5.7.8 7.2 2.4 1.6 1.6 2.4 4 2.4 7.3v11.8c0 .8-.2 1.5-.7 2a3 3 0 01-2.2.7c-.8 0-1.5-.2-2-.7-.5-.5-.8-1.2-.8-2v-1.1a6.2 6.2 0 01-2.6 3 9.4 9.4 0 01-8.3.1 7.6 7.6 0 01-3-2.7 6.7 6.7 0 01-1.1-3.8c0-1.7.4-3 1.3-4a8 8 0 014.3-2.2c2-.4 4.7-.7 8.2-.7h1.2v-1c0-1.6-.3-2.8-1-3.5-.7-.7-1.8-1-3.3-1-.9 0-1.8 0-2.8.3a33 33 0 00-5.2 1.8c-.6 0-1-.2-1.5-.6-.3-.4-.5-1-.5-1.6 0-.6.1-1 .4-1.4a4 4 0 011.4-1.2 21 21 0 018.6-2zm-1.5 20a5 5 0 003.9-1.5c1-1.1 1.5-2.5 1.5-4.2v-1h-.9c-2.1 0-3.8 0-5 .3-1.1.2-2 .5-2.5 1s-.8 1.1-.8 2c0 1 .4 1.8 1.1 2.5a4 4 0 002.7 1zm31.8-.2c1.6.1 2.4.8 2.4 2.2a2 2 0 01-1 1.8c-.6.3-1.4.5-2.6.4H947c-5.4-.4-8-3.3-8-8.7V556h-2.5c-.8 0-1.5-.2-2-.5-.4-.4-.6-1-.6-1.7 0-.8.2-1.3.6-1.7.5-.4 1.2-.6 2-.6h2.4v-4.4c0-.9.3-1.5.9-2a3 3 0 012.2-.8 3 3 0 012.1.7c.6.6.8 1.2.8 2.1v4.4h4.1c.9 0 1.5.2 2 .6.5.4.7 1 .7 1.7s-.2 1.3-.7 1.7c-.5.3-1.1.5-2 .5h-4v11c0 2.3 1 3.6 3.2 3.7l1.3.1zm11 4.5c-1 0-1.7-.3-2.2-.7-.6-.5-.9-1.3-.9-2.2V554c0-1 .3-1.7.9-2.1.5-.5 1.2-.8 2.1-.8.9 0 1.6.3 2.2.8.5.4.8 1.2.8 2v18.6c0 1-.3 1.7-.8 2.2-.6.4-1.3.7-2.2.7zm0-28.5c-1.2 0-2-.3-2.7-.9-.6-.6-1-1.4-1-2.3a3 3 0 011-2.3c.7-.6 1.5-1 2.6-1 1 0 2 .4 2.6 1 .6.5 1 1.3 1 2.3 0 1-.4 1.7-1 2.3-.6.6-1.5.9-2.6.9zm22.2 28.6a13 13 0 01-6.3-1.5c-1.8-1-3.2-2.4-4.2-4.3-1-1.8-1.5-4-1.5-6.5 0-2.4.5-4.6 1.5-6.4 1-1.8 2.4-3.3 4.2-4.3 1.8-1 4-1.4 6.3-1.4 2.4 0 4.5.4 6.3 1.4a10 10 0 014.2 4.3c1 1.8 1.5 4 1.5 6.4 0 2.5-.5 4.7-1.5 6.5a10 10 0 01-4.2 4.3c-1.8 1-3.9 1.5-6.3 1.5zm0-4.7c2 0 3.4-.6 4.4-1.9 1-1.3 1.6-3.2 1.6-5.7 0-2.4-.5-4.3-1.6-5.6-1-1.3-2.5-2-4.4-2-1.9 0-3.4.7-4.4 2-1 1.3-1.6 3.2-1.6 5.6 0 2.5.5 4.4 1.6 5.7 1 1.3 2.5 2 4.4 2zm33-19.7c2.8 0 4.9.8 6.3 2.4 1.3 1.6 2 4 2 7.2v11.8c0 .9-.3 1.6-.8 2.1a3 3 0 01-2.2.8c-.9 0-1.6-.3-2.2-.8-.5-.5-.8-1.2-.8-2v-11.6c0-1.8-.3-3.1-1-4-.7-.8-1.8-1.2-3.3-1.2-1.7 0-3 .5-4.1 1.6a6 6 0 00-1.6 4.4v10.7c0 .9-.2 1.6-.8 2.1-.5.5-1.3.8-2.2.8a3 3 0 01-2.2-.8c-.5-.5-.8-1.2-.8-2v-18.7c0-.8.3-1.5.9-2a3 3 0 012.2-.8c.8 0 1.5.3 2 .8s.8 1.1.8 2v1.2a8.1 8.1 0 013.2-3c1.4-.7 2.9-1 4.6-1z" fill="#000"/><path d="M117.1 250s-2.9 75.3 30.7 141.1C211 514.6 397 542.8 437 446 489.4 319.6 367 255 322.1 238.8c-105.8-38.5-205 11.2-205 11.2z" fill="#1E9700"/><path d="M231 154.8s16.8 64.5 23.5 96.8c47.6 229 154.2 226.1 194.8 148.9 51.7-98.5-18.7-170-51.5-195.7-77.3-60.6-166.8-50-166.8-50z" fill="#167000"/><path fill-rule="evenodd" clip-rule="evenodd" d="M449.2 399.5c9.4-96-88.2-146.5-127.1-160.7a245 245 0 00-74.4-14.4c2.4 10 4.6 19.5 6.2 27.2 47.6 229 154.2 226.1 194.8 148.9l.5-1z" fill="#145F01"/><path d="M242.1 313.7c1-2.1 2.2-3.8 3.8-4.8 1.7-1.1 3.5-1.7 5.4-1.7 2.8 0 5.2 1 7.4 3 2.3 1.7 3.4 4 3.4 6.8 0 1.4-.4 2.8-1 4.3l-33.4 69.6c-1 2.3-2.6 4-4.7 5.3a12 12 0 01-6.4 1.8c-2.3 0-4.5-.6-6.7-1.8-2-1.2-3.6-3-4.7-5.3l-33.5-69.6a9.1 9.1 0 01-.9-4.2c0-2.7 1.2-5 3.5-7 2.4-1.9 5-2.9 8-2.9 4.4 0 7.6 2.1 9.6 6.3l25.2 55.7 25-55.5zm207.3-6.5c3-.2 5.5.5 7.3 2 1.8 1.6 2.7 4 2.7 7 0 3.3-.7 5.7-2.3 7.2-1.6 1.6-4.4 2.6-8.5 3.1l-5.4.5c-7 .8-12.3 3.2-15.6 7.2-3.3 4.1-4.9 9.2-4.9 15.3v37.8c0 3.5-1 6.2-3.2 8.1a12.2 12.2 0 01-8.1 2.7c-3.3 0-6-.9-8.1-2.7-2-1.9-3-4.6-3-8v-69.7c0-3.4 1-6 3-7.8a12 12 0 017.9-2.7c3.1 0 5.6 1 7.6 2.7 1.9 1.7 2.8 4.2 2.8 7.4v7.2c2.3-5.3 5.7-9.3 10.1-12.2 4.6-2.9 9.6-4.5 15.1-4.9l2.6-.2z" fill="#fff"/><path d="M551.6 269.3c3.3 0 6 1 8.2 2.8 2.2 2 3.3 4.5 3.3 7.6v107.6c0 3.3-1 5.9-3 7.8-2.1 2-4.8 2.9-8.2 2.9-3.3 0-6-1-8-3-2.1-1.8-3.1-4.4-3.1-7.7v-4.5a28 28 0 01-11.6 11.6 34 34 0 01-16.9 4.1 37 37 0 01-34.2-22c-3.2-7-4.8-15.1-4.8-24.3 0-9 1.6-17 4.8-23.9a38 38 0 0113.9-15.8 37.2 37.2 0 0120.3-5.6c6.4 0 12 1.3 17 4 4.9 2.6 8.6 6.3 11.3 11.1v-42.7c0-3 1-5.4 2.9-7.2 2-1.9 4.7-2.8 8-2.8zM518.3 381c7.2 0 12.7-2.4 16.5-7.3 4-5 6-12 6-21 0-9.2-2-16.2-6-21-3.8-4.9-9.3-7.4-16.4-7.4-7.2 0-12.7 2.4-16.7 7.2-4 4.8-6 11.7-6 20.7 0 9.2 2 16.2 6 21.3 4 5 9.5 7.5 16.6 7.5zm146.4-73.8c3.5 0 6.2 1 8.3 3 2 1.8 3 4.4 3 7.7v69.8c0 3.1-1 5.6-3.2 7.6-2 1.9-4.7 2.8-8 2.8s-6-.9-7.8-2.7a9.6 9.6 0 01-3-7.3v-4.5a29.3 29.3 0 01-27 15c-21.5 0-32.3-12.2-32.3-36.5V318c0-3.3 1-5.9 3-7.8 2-1.9 4.8-2.9 8.1-2.9 3.5 0 6.3 1 8.3 3 2 1.8 3 4.4 3 7.7v44.4c0 6.3 1.3 10.9 3.9 13.9 2.5 3 6.4 4.5 11.8 4.5 6.3 0 11.3-2 15-6.1 3.8-4.2 5.7-9.8 5.7-16.6V318c0-3.3 1-5.9 3.1-7.8 2-1.9 4.7-2.9 8.1-2.9zm93 0c3-.2 5.5.5 7.3 2 1.8 1.6 2.7 4 2.7 7 0 3.3-.8 5.7-2.4 7.2-1.5 1.6-4.3 2.6-8.4 3.1l-5.4.5c-7 .8-12.3 3.2-15.7 7.2-3.2 4.1-4.8 9.2-4.8 15.3v37.8c0 3.5-1.1 6.2-3.3 8.1a12.2 12.2 0 01-8 2.7c-3.3 0-6-.9-8.2-2.7-2-1.9-3-4.6-3-8v-69.7c0-3.4 1-6 3-7.8a12 12 0 018-2.7c3 0 5.6 1 7.5 2.7 2 1.7 2.9 4.2 2.9 7.4v7.2c2.3-5.3 5.6-9.3 10-12.2 4.6-2.9 9.7-4.5 15.2-4.9l2.5-.2zm96.6 65.7c2 0 3.6.8 4.8 2.4 1.4 1.5 2 3.6 2 6.3 0 3.7-2.2 6.8-6.6 9.3a63 63 0 01-28.7 7.6c-14.1 0-25.3-4-33.6-12.2a44.9 44.9 0 01-12.4-33.5c0-9 1.8-17 5.4-24 3.6-7 8.6-12.3 15-16.2 6.7-3.8 14.1-5.7 22.4-5.7 8 0 14.8 1.7 20.7 5.2A35.4 35.4 0 01857 327a49 49 0 014.8 22.5c0 5.1-2.2 7.7-6.8 7.7h-53.1c.7 8.3 3 14.4 7 18.4 4 3.8 9.7 5.7 17.3 5.7a32 32 0 0010-1.4c3-1 6.4-2.3 10.2-4 3.6-1.9 6.2-2.9 7.9-2.9zM823 322.7c-6 0-11 2-14.7 5.8a27.5 27.5 0 00-6.5 16.5h40.7c-.3-7.3-2-12.8-5.4-16.5-3.4-3.9-8-5.8-14-5.8z" fill="#363636"/><path d="M377.9 365.1c3.5-2.6 4.3-7.3 1.9-10.6-2.5-3.2-7.3-3.8-10.8-1.1l-36.7 29.9c-3.5 2.6-8.3 2-10.7-1.2-2.5-3.2-1.6-8 1.9-10.6l37.9-28.4c3.5-2.6 4.3-7.3 1.9-10.6-2.4-3.2-7.2-3.7-10.7-1.1l-38 28.4c-3.4 2.6-8.2 2-10.7-1.2-2.4-3.2-1.5-8 2-10.6l39.4-26.3c3.5-2.7 4.3-7.4 1.9-10.7-2.4-3.2-7.2-3.7-10.7-1.1a474.3 474.3 0 00-41.4 28c-2.5 1.2-24.8 17.6-30.4 36-1 3.5-1.5 6.8-1.5 10l-.3 1.8c-.7 7.7-7 18.1-14.4 23.6-21.1 15.9-36.9 29.6-69 37.6-5.7 1.4-9.7 3-12.4 5-10.6 8-13.3 22.4-6 32.1 7.3 9.7 21.8 11.2 32.4 3.3 2.7-2 5.4-5.4 8.4-10.5 17-29 35.8-41 55.5-55.7a38.3 38.3 0 0128.4-7c17.3 5.3 37-5.3 52.1-16.7 27.3-20.4 26.7-20 40-32.3z" fill="#fff"/></svg>