<svg xmlns="http://www.w3.org/2000/svg" viewBox="0 0 511.9 511.9"><circle cx="255.9" cy="255.9" r="255.9" fill="#ecf0f1"/><circle cx="255.9" cy="255.9" r="255.9" fill="#83cf8f"/><path d="M256 59a136 136 0 110 272 136 136 0 010-272z" fill="#5d718f"/><path d="M256 59c54 0 100 31 122 77a149 149 0 01-179 183 136 136 0 0157-260z" fill="#6b7f9e"/><path d="M341 89c25 20 43 49 49 82l-1-2-6 1-3 3-7 7v8c-1 1-2 5-4 4l-3-7c-1-3-3-5-3-8l-1-6h-4l-1-3-5-4h-7c-4 0-4 0-6-3-4 0-3 2-7-1-2-2-2-5-5-4 0 3 1 4 2 5l3 3v2c3 0 4-2 6-3 2 2 0 2 2 3l3 2c1 3-4 9-6 10l-3 1-3 2c-3 1-6 4-10 4l-2-6c-2-7-2-4-4-8l-2-4-1-3c-1-2-3-5-5-4l3 8 2 4 1 3c3 4 0 3 5 7 3 2 2 3 3 7 3 0 9-3 11-2 1 3-2 6-3 9-2 6-7 6-10 12l-4 6c-2 4 4 15 0 20l-6 5c-3 3 0 3-1 8l-3 3-1 4-2 2-2 3-2 2c-4 4-12 4-13 4-2-2 0-2-1-5l-2-5-1-2c-2-5-1-9-4-14-3-7 2-10 2-14l-1-2c0-4-1-8-4-11-2-3-2-2-1-8s-2-5-6-5c-2-6-5-3-9-1h-6c-6 1-1 3-9-3-3-2-1-1-3-4l-4-4c-3-4 1-8 0-12-1-8-2-1 3-11 2-5 5-5 6-7l2-6c1-1 3-1 4-4 1-2-1-3-3-3v-5-4c1-4 8 0 10-2v-5l-4-3h2l4-2 4-3c3-1 2-3 5-3 4-1 1-1 2-5l2-1 1 2 2-1-2-4-5 2c-2-1-2-4-2-6 1-2 4-3 6-3l3-4c3-3 1 0 2-4l3-1h1l3-1c5-1 7-1 11 1 2 1 10 1 11 4-2 3-4 1-7 1l3 4 1-2 2 1c1-3 2-3 5-3v-3c3 0 0 0 2 2l6-2h8l1-2 8 2c-2-3-4-2-1-6 2 0 3 0 4 2l1-1h1zm-218 77c6-28 21-53 41-71h6c0-1 0-2 2-3h1l1 2c2-1 0-1 2-4l-4-2 6-2v3c2-1 3-4 5-3h2c-2 2-4 2-5 2-1 8 2 2 1 7 2 0 4-2 4-3l-2-2 3-3 3-1c14 0 7 1 12 3l3 1 1 4c1 1 2 0 3 2 0 1-1 2-3 2l-3-1c0 3 2 3 0 5h-2l-1 1c-4-1-3 0-5-2l-2-1-3-1c1-2 2 0 5-1l3-3-1-1c-2-3-3-2-6-2l-5 5h-4c1 3 3 1 3 4h-3c-3 1 0 1 0 1v1c-2 1 0 0-3-2l1-2a51 51 0 00-15 8v4c5 0 3 1 7 2l3 1v6c3 2 3-2 3-5 10-2 5-5 8-10l1-2h5c2 0 1 1 3 2 0 2-1 4 2 4l4-3 2 8c6 2 3 4 2 9l2 1v4l-7-2 4-6-4 2h-4v2c-2-1-2-3-6-1l3 1-1 3c-1 4 4 1 5 1 0 2-2 2-4 3l-5 2c0-3 0 0 1-2l-5 1v1c-2 0-2 1-3 4l-5 2-4 4c0 4 0 4-3 5l-4 3c-5 5-2 3-2 11l-3-1c-1-6 0-4-5-5-5-2-4 1-6 1-2 1-3-2-6 0-2 2-4 2-4 5l-2 7c0 8 8 8 9 5s1-4 5-4l-1 6v4c2 1 2-1 6 1 0 4-1 8 1 10h5c2-1 2 1 4 1l1-2c1-3 2-2 5-4h1l1 2c2-3 2 0 5 1h8v1h1v1l6 5c3 2 3-1 7 3l2 3v2l2 2c1 3 4 1 6 4l4 1c5 1 3 1 7 3l3 2c2 2 1 5 0 7-5 7-4 6-4 12 0 3-1 10-4 11-11 3-5 5-7 10l-2 3c-3 5-1 7-8 6l1 1c2 3 2 5-1 6-4 1-2 0-3 4l-2 1c1 2 0 0 2 1l-1 4-1 3c1 1 2 0 2 2l-1 5c2 3 3 5 6 6 0 2 1 1-1 2l-6-2-6-5-1-2-2-4-1-5c0-1 2-4 0-4-1 1 1 1-1 2l-1-5-2-5c0-4 2-4 0-11l-2-19-1-2-6-5h-1c-3-2-6-11-8-14l-3-3 1-4c-4-7 5-7 3-16l-2-4c-2 1-1 1-2 3l-4-3c-5-4-3-1-4-4-2-6-5-2-8-5-2-1-2-3-4-3-4 0-2 1-6-1l-8-5c0-4 1-4-2-8zm43-73l2-2h1v1l-3 1zm116 41l4 2c1 3-1 1 2 5l2 4 2-1 1-2-2-2c3-4 4-2 5 0 1 7 4 5 6 5h5c4-1 1 8 0 9l-4-1c-3 0 1 2-8 0-8-3-6-4-8 2l-4-1h-1l-1-2c-2-1-5-1-7-3 0-1 2-3 0-5h-12c-3 1-3 3-8 3-2 0-1 0-2-2h3c7-1 3-5 7-8l3-3h4c2-1 1-2 4-2 2 2 1 3 5 5l3 2v3h1c2-1-1-1 2-4l-2-1c-2-2-2 0-4-4-1-1-2-1-1-3 2 0 2 1 4 3l1 1zm47 93l-4 5c-2 1-4 1-4 3-1 4 1 3-1 7v7c4 4 6-6 7-9l2-6c1-2 2-4 0-7zm-7-97c1 5 3 6 5 8l-1 5c2 1 4 2 7 1 0-3-1-3-2-5l1-1 1-1c-3-1-6-3-6-6l1-1c2-1 1 1 2-1-1-1-2-2-4-1l-4 3v-1zm-17 1l-4-3c-1 2-3 3-3 5v5l2-1c2-1 5-2 7-1 3 0 5 3 9 0 0-3-4-4-7-5l1-3h-2l-1 1c0 2 2 0 0 2h-2zm-51-21c0 5 1 4 3 6l-2 3v3l5-1c2 0 2 0 3-2l-4-5-1-3-1-3-3 2z" fill="#f7f9f7"/><g fill="#fed298"><path d="M191 341c-22-13-59-41-59-41s-11 13-3 26c7 12 38 34 38 34s0 9-10 2-49-50-49-50l-26-73c-4-10-15-8-15-8l9 95c1 8 68 92 68 92l20 25-13 46c23 11 48 18 74 21l1-85c10-34-13-71-35-84zM321 341c22-13 59-41 59-41s11 13 3 26c-7 12-38 34-38 34s0 9 10 2 49-50 49-50l26-73c4-10 15-8 15-8l-9 95c-1 8-68 92-68 92l-20 25 13 46c-23 11-48 18-74 21l-1-85c-10-34 13-71 35-84z"/></g><g fill="#fefefe"><path d="M367 310l12-9 2 5-11 8zM145 311l-12-10-2 5 11 9z"/></g><g fill="#f0b97d"><path d="M110 268l4 51-6-7-13-38v-15c0-6 15-8 15 8v1zM402 268l-4 51 6-7 13-38v-15c0-6-15-8-15 8v1z"/></g></svg>