<svg width="353" height="353" fill="none" xmlns="http://www.w3.org/2000/svg"><g clip-path="url(#clip0)"><path d="M259 16h-8l-74 321c4-2 176-97 176-227 0-52-42-94-94-94z" fill="#DCDBDB"/><path d="M251 16c40 4 71 44 71 94 0 130-142 225-145 227 0 0-177-95-177-227a94 94 0 01177-46c14-27 42-45 74-48z" fill="#EDECEC"/><path d="M100 221a6 6 0 100-12 6 6 0 000 12zM283 121a6 6 0 100-11 6 6 0 000 11zM77 198a6 6 0 100-12 6 6 0 000 12z" fill="#DCDBDB"/><path d="M258 299h-18v-19c0-4-3-7-8-7-4 0-7 3-7 7v19h-18c-5 0-8 3-8 7s3 7 8 7h18v17c0 4 3 7 7 7 5 0 8-3 8-7v-17h18c4 0 7-3 7-7s-3-7-7-7z" fill="#C9C9C9"/></g><defs><clipPath id="clip0"><path fill="#fff" d="M0 0h353v353H0z"/></clipPath></defs></svg>