<svg xmlns="http://www.w3.org/2000/svg" viewBox="0 0 59 59"><path d="M54.2 44.6c.2 1.2.3 2.5.3 3.7-16.4 4-33.6 4-50 0 0-1.2.1-2.5.3-3.7C2 46.1.5 47.6.5 48.8c0 3.6 13 6.5 29 6.5s29-2.9 29-6.5c0-1.2-1.6-2.7-4.3-4.2z" fill="#d2d5d7"/><path d="M29.5 55.8c-14.3 0-29.5-2.4-29.5-7 0-1.8 2.5-3.5 4.5-4.6l1-.5-.2 1C5 45.7 5 46.9 5 48c16 3.7 33 3.7 49 0l-.3-3.3-.1-1 .9.5c2 1 4.5 2.8 4.5 4.6 0 4.6-15.2 7-29.5 7zM4.2 45.5C2.2 46.7 1 48 1 48.8c0 2.9 11.7 6 28.5 6s28.5-3.1 28.5-6c0-.8-1.2-2-3.2-3.3l.2 2.8v.4l-.4.1c-16.4 4-33.8 4-50.2 0H4v-.5c0-.9 0-1.8.2-2.8z" fill="#e6e6e6"/><path d="M4.5 48.3a25 25 0 0150 0c-16.4 4-33.6 4-50 0z" fill="#e6e6e6"/><path d="M29.5 51.8c-8.5 0-16.9-1-25.1-3H4v-.5a25.5 25.5 0 0151 0v.4l-.4.1c-8.2 2-16.6 3-25.1 3zM5 48c16 3.7 33 3.7 49 0a24.5 24.5 0 00-49 0z" fill="#d2d5d7"/><path d="M18.6 21.3a1 1 0 01-.8-.2 4.6 4.6 0 010-6.6 2.6 2.6 0 000-3.6 1 1 0 111.5-1.5 4.6 4.6 0 010 6.6c-1 1-1 2.6 0 3.6a1 1 0 01-.7 1.7zM40.6 21.3a1 1 0 01-.7-.2 4.6 4.6 0 010-6.6 2.6 2.6 0 000-3.6 1 1 0 111.4-1.5 4.6 4.6 0 010 6.6c-1 1-1 2.6 0 3.6a1 1 0 01-.7 1.7zM29.6 15.3a1 1 0 01-.8-.2 4.6 4.6 0 010-6.6 2.6 2.6 0 000-3.6 1 1 0 111.5-1.5 4.6 4.6 0 010 6.6c-1 1-1 2.6 0 3.6a1 1 0 01-.7 1.7z" fill="#e6e6e6"/><path d="M34 24.7H33c-2.4-.4-4.8-.4-7.2 0H25l-.3-.7a5 5 0 119.7-1.6c0 .5 0 1-.3 1.6l-.3.7zm-4.5-2.4l3 .2v-.2a3 3 0 10-6 .2l3-.2z" fill="#d2d5d7"/><path d="M24.8 28.9a1 1 0 01-.2-2c1.6-.4 3.2-.6 4.9-.6.5 0 1 .5 1 1 0 .6-.4 1-1 1a20.1 20.1 0 00-4.7.6zM9.5 45.3h-.2a1 1 0 01-.8-1.1 22 22 0 0110.2-15 1 1 0 111 1.8 20 20 0 00-9.2 13.5c-.1.5-.5.8-1 .8z" fill="#fff"/></svg>