<svg width="350" height="350" fill="none" xmlns="http://www.w3.org/2000/svg"><path fill-rule="evenodd" clip-rule="evenodd" d="M0 96s-3 75 31 141c29 57 84 94 139 107v-9a59 59 0 00-18-42l-11-11c-18-24-18-68-17-72a731 731 0 014-79 11 11 0 0114-11c5 1 9 6 9 12l-4 74c0 7 5 13 12 13l2-1c5-1 9-6 9-12v-74-1c1-6 6-11 12-11h2c5 1 9 6 9 12v74c0 7 6 13 12 13l2-1c6-1 10-6 10-12l-3-74v-1a11 11 0 0114-11c5 1 9 6 9 12v2l2 21 1 57c0 30-5 65-28 81l-2 2c-9 8-17 26-17 40v14c56 7 108-11 127-57 52-126-70-191-115-207C99 46 0 96 0 96z" fill="#1E9700"/><path fill-rule="evenodd" clip-rule="evenodd" d="M137 98c-7-33-24-97-24-97s90-11 167 50c33 25 103 97 52 195-23 43-66 63-107 34 12-19 15-45 15-68l-1-57-2-23c0-6-5-12-12-12-6 0-11 6-11 12l3 74c0 7-6 13-12 13s-12-6-12-13v-74c0-6-5-12-11-12-7 0-12 6-12 12v74c-7-16-14-35-20-56l1-18c0-5-4-10-9-12l-5-22z" fill="#167000"/><path fill-rule="evenodd" clip-rule="evenodd" d="M205 85c39 14 137 64 127 160v1c-23 43-66 63-107 34 12-19 15-45 15-68l-1-57-2-23c0-6-5-12-12-12-6 0-11 6-11 12l3 74c0 7-6 13-12 13s-12-6-12-13v-74c0-6-5-12-11-12-7 0-12 6-12 12v74c-7-16-14-35-20-56l1-18c0-5-4-10-9-12a729 729 0 01-11-50c23 1 48 5 74 15z" fill="#145F01"/></svg>