<svg width="796" height="413" fill="none" xmlns="http://www.w3.org/2000/svg"><path d="M31 135s-2.8 75.3 30.8 141.1c63 123.5 249.1 151.7 289.2 54.8 52.3-126.3-70.2-190.8-115-207.1C130.4 85.3 31 135 31 135z" fill="#1E9700"/><path d="M145 39.8s16.8 64.5 23.5 96.8c47.6 229 154.2 226.1 194.8 148.9 51.7-98.5-18.8-170-51.5-195.7-77.3-60.6-166.8-50-166.8-50z" fill="#167000"/><path fill-rule="evenodd" clip-rule="evenodd" d="M363.1 284.5c9.5-96-88.1-146.5-127-160.7a245 245 0 00-74.4-14.4c2.4 10 4.5 19.5 6.1 27.2 47.6 229 154.2 226.1 194.8 148.9l.5-1z" fill="#145F01"/><path d="M156 198.7c1-2.1 2.3-3.8 3.9-4.8 1.6-1.1 3.4-1.7 5.4-1.7 2.7 0 5.2 1 7.3 3 2.3 1.7 3.5 4 3.5 6.8 0 1.4-.4 2.8-1.1 4.3l-33.3 69.6c-1.1 2.3-2.7 4-4.7 5.3a12 12 0 01-6.5 1.8c-2.3 0-4.5-.6-6.6-1.8-2-1.2-3.6-3-4.7-5.3l-33.5-69.6a9.1 9.1 0 01-.9-4.2c0-2.7 1.1-5 3.4-7 2.4-1.9 5.1-2.9 8.1-2.9 4.3 0 7.5 2.1 9.6 6.3l25.2 55.7 25-55.5zm207.3-6.5c3.1-.2 5.6.5 7.4 2 1.8 1.6 2.7 4 2.7 7 0 3.3-.8 5.7-2.3 7.2-1.6 1.6-4.4 2.6-8.5 3.1l-5.4.5c-7 .8-12.3 3.2-15.7 7.2-3.2 4.1-4.8 9.2-4.8 15.3v37.8c0 3.5-1.1 6.2-3.3 8.1a12.2 12.2 0 01-8 2.7c-3.3 0-6-.9-8.2-2.7-2-1.9-3-4.6-3-8v-69.7c0-3.4 1-6 3-7.8a12 12 0 018-2.7c3 0 5.6 1 7.5 2.7 2 1.7 2.9 4.2 2.9 7.4v7.2c2.3-5.3 5.6-9.3 10-12.2 4.6-2.9 9.7-4.5 15.2-4.9l2.5-.2z" fill="#fff"/><path d="M465.5 154.3c3.4 0 6.1 1 8.3 2.8 2.2 2 3.2 4.5 3.2 7.6v107.6c0 3.3-1 5.9-3 7.8-2 1.9-4.8 2.9-8.1 2.9-3.4 0-6-1-8.1-3-2-1.8-3-4.4-3-7.7v-4.5a28 28 0 01-11.6 11.6 34 34 0 01-17 4.1 37 37 0 01-34.1-22c-3.3-7-4.9-15.1-4.9-24.3 0-9 1.6-17 4.9-23.9a38 38 0 0113.8-15.8 37.2 37.2 0 0120.4-5.6c6.3 0 12 1.3 17 4 4.8 2.6 8.6 6.3 11.2 11.1v-42.7c0-3 1-5.4 3-7.2 2-1.9 4.7-2.8 8-2.8zM432.2 266c7.2 0 12.7-2.4 16.6-7.3 4-5 6-12 6-21.1 0-9.1-2-16-6-20.9-3.9-4.9-9.3-7.4-16.4-7.4-7.2 0-12.8 2.4-16.7 7.2-4 4.8-6 11.7-6 20.7 0 9.2 2 16.2 6 21.3 4 5 9.4 7.5 16.5 7.5zm146.5-73.8c3.5 0 6.2 1 8.3 3 2 1.8 3 4.4 3 7.7v69.8c0 3.1-1 5.6-3.2 7.6-2 1.9-4.8 2.8-8.1 2.8s-5.8-.9-7.8-2.7a9.6 9.6 0 01-2.8-7.3v-4.5a29.3 29.3 0 01-27 14.9c-21.6 0-32.4-12.1-32.4-36.4V203c0-3.3 1-5.9 3-7.8 2-1.9 4.8-2.9 8.1-2.9 3.5 0 6.3 1 8.3 3 2 1.8 3 4.4 3 7.7v44.4c0 6.3 1.3 10.9 3.8 13.9 2.6 3 6.5 4.5 12 4.5 6.2 0 11.1-2 14.9-6.1 3.8-4.2 5.7-9.8 5.7-16.6v-40.1c0-3.3 1-5.9 3-7.8 2.1-1.9 4.8-2.9 8.2-2.9zm92.9 0c3-.2 5.5.5 7.4 2 1.8 1.6 2.6 4 2.6 7 0 3.3-.7 5.7-2.3 7.2-1.5 1.6-4.4 2.6-8.4 3.1l-5.4.5c-7.1.8-12.4 3.2-15.7 7.2-3.3 4.1-4.9 9.2-4.9 15.3v37.8c0 3.5-1 6.2-3.2 8.1a12.2 12.2 0 01-8.1 2.7c-3.3 0-6-.9-8.1-2.7-2-1.9-3-4.6-3-8v-69.7c0-3.4 1-6 3-7.8a12 12 0 018-2.7c3 0 5.5 1 7.5 2.7 1.9 1.7 2.9 4.2 2.9 7.4v7.2c2.2-5.3 5.6-9.3 10-12.2 4.6-2.9 9.6-4.5 15.1-4.9l2.6-.2zm96.6 65.7c2 0 3.7.8 4.9 2.4 1.3 1.5 2 3.6 2 6.3 0 3.7-2.2 6.8-6.7 9.3a63 63 0 01-28.6 7.6c-14.2 0-25.4-4-33.7-12.2a44.9 44.9 0 01-12.4-33.5c0-9 1.8-17 5.4-24 3.6-7 8.7-12.3 15.1-16.2 6.6-3.8 14-5.7 22.4-5.7 7.9 0 14.8 1.7 20.7 5.2a35.4 35.4 0 0113.6 14.8 49 49 0 014.9 22.5c0 5.1-2.3 7.7-6.8 7.7h-53.1c.7 8.3 3 14.4 7 18.4 4 3.8 9.7 5.7 17.3 5.7a32 32 0 0010-1.4c3-1 6.4-2.3 10.1-4 3.6-1.9 6.3-2.9 8-2.9zm-31.1-50.2c-6.1 0-11 2-14.8 5.8A27.5 27.5 0 00716 230h40.6c-.2-7.3-2-12.8-5.4-16.5-3.3-3.9-8-5.8-14-5.8z" fill="#363636"/><path d="M291.8 250.1c3.5-2.6 4.4-7.3 2-10.6-2.5-3.2-7.3-3.8-10.8-1.1l-36.8 29.9c-3.4 2.6-8.2 2-10.7-1.2-2.4-3.2-1.5-8 2-10.6l37.9-28.4c3.4-2.6 4.3-7.3 1.9-10.6-2.5-3.2-7.3-3.8-10.8-1.1l-37.9 28.4c-3.5 2.6-8.3 2-10.7-1.2-2.4-3.2-1.6-8 2-10.6l39.4-26.4c3.4-2.6 4.3-7.3 1.9-10.6-2.5-3.2-7.3-3.7-10.8-1.1a474 474 0 00-41.3 28c-2.5 1.2-24.9 17.5-30.5 36-1 3.5-1.5 6.8-1.4 10l-.4 1.8c-.7 7.7-7 18.1-14.3 23.6-21.2 15.9-36.9 29.5-69 37.6-5.8 1.4-9.7 3-12.5 5-10.6 8-13.2 22.4-6 32.1 7.4 9.7 21.9 11.2 32.5 3.3 2.7-2 5.4-5.4 8.4-10.6 17-29 35.7-40.9 55.4-55.6a38.3 38.3 0 0128.5-7c17.3 5.3 37-5.3 52.1-16.7 27.3-20.4 26.7-20 40-32.3z" fill="#fff"/></svg>