<svg xmlns="http://www.w3.org/2000/svg" width="240" height="130"><path d="M22.2 0h195.6A22.2 22.2 0 01240 22.2v78.2a22.2 22.2 0 01-22.2 22.2H22.2A22.2 22.2 0 010 100.4V22.2A22.2 22.2 0 0122.2 0z" fill="#fff" fill-rule="evenodd"/><path d="M36 44.2h44.8v72.4H35.9z" fill="#038141" fill-rule="evenodd"/><path d="M166.5 44.2h44.9v72.4h-44.9z" fill="#e63e11" fill-rule="evenodd"/><path d="M26.8 44.2H38c9.3 0 16.8 7.5 16.8 16.8v38.8c0 9.3-7.5 16.8-16.8 16.8H26.8A16.8 16.8 0 0110 99.8V61c0-9.3 7.5-16.8 16.8-16.8z" fill="#038141" fill-rule="evenodd"/><path d="M144.6 44.2h44.8v72.4h-44.8z" fill="#ee8100" fill-rule="evenodd"/><path style="line-height:90%;-inkscape-font-specification:'Raleway Ultra-Bold'" d="M152.7 96.3V63.5h12.2q4.1 0 7.2 1.3 3 1.3 5 3.5 2.1 2.2 3.1 5.2 1.1 3 1.1 6.4 0 3.7-1.1 6.8-1.2 3-3.4 5.1-2.1 2.2-5.2 3.4-3 1.1-6.7 1.1zM173.6 80q0-2.2-.6-4-.6-1.8-1.7-3-1-1.4-2.7-2-1.6-.7-3.7-.7h-4.6v19.5h4.6q2.1 0 3.7-.8 1.7-.7 2.7-2 1.1-1.3 1.7-3.1.6-1.8.6-4z" font-weight="800" font-family="Raleway" letter-spacing="0" word-spacing="0" fill="#fff" fill-opacity=".4"/><path d="M97.3 44.2h47.3v72.4H97.3z" fill="#fecb02" fill-rule="evenodd"/><path d="M99.6 44.2H54.7v72.4h44.9z" fill="#85bb2f" fill-rule="evenodd"/><path style="line-height:90%;-inkscape-font-specification:'Raleway Ultra-Bold'" d="M110.3 79.4q0-3 1-6 1.2-2.9 3.3-5.2 2.1-2.3 5.2-3.7 3-1.5 7-1.5 4.6 0 8 2 3.4 2 5 5.2l-5.8 4q-.6-1.2-1.4-2-.9-1-1.9-1.4-1-.6-2-.8l-2.2-.2q-2.1 0-3.7.9-1.7.8-2.7 2.2-1 1.4-1.6 3.2-.5 1.7-.5 3.5 0 2 .6 3.8.6 1.8 1.7 3.2 1.2 1.4 2.7 2.2 1.6.8 3.6.8 1 0 2.1-.3 1.1-.2 2.1-.7 1-.6 1.8-1.4.9-.9 1.4-2.2l6.2 3.7q-.8 1.8-2.2 3.2-1.5 1.5-3.4 2.4-1.9 1-4 1.5t-4.1.5q-3.6 0-6.6-1.4-3-1.5-5.1-3.9-2.2-2.4-3.4-5.4-1.1-3.1-1.1-6.2zM93 89q0 2-.8 3.7-1 1.5-2.5 2.6-1.5 1-3.5 1.6-2 .5-4.3.5H66V64.6h18.3q1.7 0 3 .8 1.4.7 2.4 2 1 1 1.5 2.6.5 1.5.5 3 0 2.4-1.2 4.5-1.1 2-3.5 3.1 2.8.9 4.5 3 1.6 2.1 1.6 5.5zm-7.7-1.6q0-1.5-.9-2.6-.8-1-2.2-1h-8.7V91H82q1.5 0 2.4-1 1-.9 1-2.5zM73.6 71.1V78H81q1.3 0 2.2-.8 1-.9 1-2.6 0-1.6-.9-2.5-.8-.9-2-.9z" font-weight="800" font-family="Raleway" letter-spacing="0" word-spacing="0" fill="#fff" fill-opacity=".4"/><path d="M75 34.8h4.9A24.2 24.2 0 01104 59v42.5a24.2 24.2 0 01-24.2 24.3H75a24.2 24.2 0 01-24.2-24.3V59A24.2 24.2 0 0175 34.8z" fill="#0039ff" fill-opacity=".6" fill-rule="evenodd" stroke="#fff" stroke-width="7.5" stroke-linecap="round" stroke-linejoin="round"/><path style="line-height:90%;-inkscape-font-specification:'Raleway Ultra-Bold'" d="M26.5 63.5h6.9l12 32.8h-7.8L35 89H24.8l-2.5 7.3h-7.8zm7.3 20.3L29.9 72 26 83.8z" font-weight="800" font-family="Raleway" letter-spacing="0" word-spacing="0" fill="#fff" fill-opacity=".4"/><path d="M206.2 44.2h11.2c9.3 0 16.8 7.5 16.8 16.8v38.8c0 9.3-7.5 16.8-16.8 16.8h-11.2a16.8 16.8 0 01-16.9-16.8V61c0-9.3 7.5-16.8 16.9-16.8z" fill="#e63e11" fill-rule="evenodd"/><path style="line-height:90%;-inkscape-font-specification:'Raleway Ultra-Bold'" d="M223.3 89.7v6.6h-23V63.5h22.6v6.7h-15v6.3h12.9v6.2h-13v7z" font-weight="800" font-family="Raleway" letter-spacing="0" word-spacing="0" fill="#fff" fill-opacity=".4"/><path d="M75 34.8h4.9A24.2 24.2 0 01104 59v42.5a24.2 24.2 0 01-24.2 24.3H75a24.2 24.2 0 01-24.2-24.3V59A24.2 24.2 0 0175 34.8z" fill="#85bb2f" fill-rule="evenodd"/><path style="line-height:90%;-inkscape-font-specification:'Raleway Ultra-Bold'" d="M93.8 91.7q0 2.8-1 4.9-1 2-3 3.5-1.8 1.3-4.2 2-2.5.7-5.2.7H61V59.5h22.1q2 0 3.7 1 1.7 1 2.9 2.5 1.2 1.6 1.8 3.6.7 2 .7 4 0 3.1-1.5 5.9-1.4 2.7-4.2 4.1 3.4 1.1 5.3 4 2 2.7 2 7.1zm-9.3-2q0-2-1-3.4-1.1-1.4-2.7-1.4H70.2v9.4h10.2q1.7 0 3-1.3 1.1-1.2 1.1-3.3zM70.2 68v9h9q1.5 0 2.7-1 1.1-1.2 1.1-3.5 0-2.1-1-3.3-1-1.2-2.5-1.2z" font-weight="800" font-family="Raleway" letter-spacing="0" word-spacing="0" fill="#fff"/><path style="line-height:90%;-inkscape-font-specification:'Raleway Ultra-Bold'" d="M19.3 20.2v9.4h-3.9V13h3l7.8 9.8V13H30v16.6h-3zm21 6.2q1 0 1.7-.4t1-1.1q.5-.7.7-1.6l.2-1.8V13h3.8v8.5q0 1.8-.5 3.3-.4 1.5-1.3 2.6t-2.3 1.8q-1.4.6-3.3.6-2 0-3.4-.7t-2.3-1.8q-.8-1.1-1.2-2.6-.4-1.5-.4-3.2V13h3.8v8.5q0 1 .2 1.9t.6 1.5q.4.7 1 1 .7.5 1.7.5zm23-10h-5v13.2h-3.9V16.4h-5V13h13.9zm1.9 13.2V13h7.4q1.2 0 2.2.5 1 .5 1.7 1.3t1.1 1.8q.5 1 .5 2l-.2 1.6q-.2.7-.6 1.3-.3.6-.8 1.1l-1.2.9 3.7 6.1h-4.3l-3.2-5.3H69v5.3zM69 21h3.5q.7 0 1.2-.6t.5-1.6q0-1-.6-1.7-.6-.6-1.2-.6H69zm11.8 8.7V13h3.8v16.6zm6.7-4.7v-3.4h7.2V25zm20-7l-.5-.3-1-.6-1.4-.5q-.7-.2-1.5-.2-2 0-2 1.4 0 .4.2.7.2.3.6.5l1.1.4 1.5.4 2.2.8q1 .3 1.6 1 .7.5 1 1.3.4.8.4 2 0 1.4-.5 2.3-.6 1-1.4 1.6-.9.6-2 .9-1.1.2-2.3.2l-1.9-.1q-1-.1-1.9-.4l-1.7-.7q-.9-.3-1.6-.8l1.7-3.4.6.5 1.3.6q.7.4 1.7.6.9.3 1.9.3 2 0 2-1.3 0-.4-.3-.7l-.9-.6-1.2-.4-1.6-.5-2-.8q-.9-.4-1.4-1-.6-.5-.8-1.2-.3-.7-.3-1.6 0-1.3.5-2.3.5-1 1.3-1.7.9-.7 2-1 1-.4 2.3-.4.9 0 1.7.2.9.1 1.6.4.8.2 1.5.6l1.2.6zm3.5 3.3q0-1.5.6-3 .5-1.5 1.6-2.6 1-1.2 2.6-2 1.5-.6 3.5-.6 2.3 0 4 1 1.8 1 2.6 2.6l-3 2q-.2-.6-.6-1-.5-.5-1-.7l-1-.4-1-.1q-1.2 0-2 .4-.8.5-1.4 1.2-.5.7-.7 1.5-.3 1-.3 1.8 0 1 .3 2 .3.9.9 1.6.5.7 1.3 1 .9.5 1.9.5l1-.1 1-.4 1-.7.7-1.1 3.1 1.8q-.4 1-1.1 1.7-.7.7-1.7 1.2t-2 .7q-1.1.3-2.1.3-1.8 0-3.3-.7-1.5-.8-2.6-2t-1.7-2.8q-.6-1.5-.6-3zm24.1 8.6q-1.8 0-3.4-.7-1.5-.8-2.6-2-1-1.1-1.6-2.6-.6-1.6-.6-3.2t.6-3.1q.6-1.6 1.7-2.7 1.1-1.2 2.7-1.8 1.5-.7 3.3-.7 1.8 0 3.3.7 1.6.7 2.6 1.9 1.1 1.2 1.7 2.7.6 1.5.6 3 0 1.7-.6 3.2-.7 1.6-1.8 2.7-1 1.2-2.6 1.9-1.5.7-3.3.7zm-4.3-8.4q0 1 .3 1.8.2 1 .8 1.6.5.7 1.4 1.2.8.4 1.8.4 1.1 0 2-.5.8-.4 1.3-1.1.5-.7.8-1.6.3-1 .3-1.9 0-1-.3-1.8-.3-1-.8-1.6-.6-.7-1.4-1.1-.8-.4-1.9-.4-1 0-1.9.4-.8.4-1.3 1.1-.6.7-.9 1.6l-.2 1.9zm14.8 8.2V13h7.5q1.1 0 2.1.5t1.8 1.3q.7.8 1 1.8.5 1 .5 2l-.2 1.6-.5 1.3-.9 1.1-1.1.9 3.6 6.1h-4.3l-3.2-5.3h-2.5v5.3zm3.8-8.7h3.5q.7 0 1.2-.6t.5-1.6q0-1-.6-1.7-.5-.6-1.2-.6h-3.4zm23.5 5.4v3.3h-11.6V13h11.4v3.4h-7.6v3.2h6.5v3.1h-6.5v3.6z" font-weight="800" font-family="Raleway" letter-spacing="0" word-spacing="0" fill="#7d7d7d"/></svg>