<svg width="35" height="31" fill="none" xmlns="http://www.w3.org/2000/svg"><g clip-path="url(#clip0)"><path fill-rule="evenodd" clip-rule="evenodd" d="M5.5 25.3h2V5.7h-2v19.6zm4.3 0h2V5.7h-2v19.6zm4.3 0h4V5.7h-4v19.6zm6.3 0h2V5.7h-2v19.6zm4.6 0h4V5.7h-4v19.6zm7 5.6h-4.5v-2h4.4c.6 0 1-.5 1-1.2v-5.2h2v5.2c0 1.8-1.3 3.2-3 3.2zm-23.6-.5H3.2c-1.8 0-3.2-1.3-3.2-3V23h2v4.4c0 .6.5 1 1.2 1h5.2v2zM2 8.4H0V3.2C0 1.4 1.4 0 3 0h4.4v2H3c-.5 0-1 .5-1 1.2v5.2zM35 8h-2V3.5c0-.6-.6-1-1.3-1h-5.2v-2h5.2c1.8 0 3.2 1.3 3.2 3V8z" fill="#fff"/></g><defs><clipPath id="clip0"><path fill="#fff" d="M0 0h34.9v30.9H0z"/></clipPath></defs></svg>