<svg width="424" height="424" fill="none" xmlns="http://www.w3.org/2000/svg"><ellipse cx="156.5" cy="155" rx="139.5" ry="141" fill="#CCEAFF"/><path d="M274.3 259.4l21.5 21.5a28.5 28.5 0 00-14.9 14.9l-21.5-21.5a156.7 156.7 0 0014.9-14.9z" fill="#EBEBEB"/><path d="M415.3 415.3a28.5 28.5 0 01-40.3 0l-88-88a28.5 28.5 0 0140.2-40.4l88.1 88.1a28.5 28.5 0 010 40.3z" fill="#D2D2D2"/><path opacity=".5" d="M266.9 157.4a7.5 7.5 0 01-15 0 95.5 95.5 0 00-42.1-79.1 7.5 7.5 0 118.4-12.5 110.4 110.4 0 0148.7 91.6zM183.3 49.3a7.5 7.5 0 11-3.6 14.5 96 96 0 00-23.3-2.8 7.5 7.5 0 110-15c9.1 0 18.2 1 26.9 3.3z" fill="#fff"/><path opacity=".6" d="M415.3 415.3a28.5 28.5 0 01-40.3 0L327.2 287l88.1 88.1a28.5 28.5 0 010 40.3z" fill="#C9C9C9"/><ellipse opacity=".2" cx="121.6" cy="192.6" rx="114.4" ry="95.6" transform="rotate(35.1 121.6 192.6)" fill="#fff"/><path d="M267 45.8a156.8 156.8 0 00-221.2 0c-61 61-61 160.3 0 221.3a156.7 156.7 0 00243.7-28.3 156.8 156.8 0 00-22.4-193zm8.3 171.4a133.2 133.2 0 01-173.7 61A133.9 133.9 0 0123 156.4 133.3 133.3 0 01156.4 23a133.5 133.5 0 01119 194.3z" fill="#D2D2D2"/></svg>